# MagicaVoxel @ Ephtracy

# group
o 

# material
mtllib toiletpaper.mtl
usemtl palette

# normals
vn -1 0 0
vn 1 0 0
vn 0 0 1
vn 0 0 -1
vn 0 -1 0
vn 0 1 0

# texcoords
vt 0.537109 0.5
vt 0.958984 0.5

# verts
v 0.4 2 -0.6
v 0.4 2 -1.1
v 0.4 2.8 -0.6
v 0.4 2.8 -1.1
v 0.5 2 -0.5
v 0.5 2 -0.6
v 0.5 2 -1.1
v 0.5 2 -1.2
v 0.5 2.8 -0.5
v 0.5 2.8 -0.6
v 0.5 2.8 -1.1
v 0.5 2.8 -1.2
v 0.6 2 -0.4
v 0.6 2 -0.5
v 0.6 2 -1.2
v 0.6 2 -1.3
v 0.6 2.8 -0.4
v 0.6 2.8 -0.5
v 0.6 2.8 -1.2
v 0.6 2.8 -1.3
v 0.9 2 -0.7
v 0.9 2 -0.8
v 0.9 2 -0.9
v 0.9 2 -1
v 0.9 2.8 -0.7
v 0.9 2.8 -0.8
v 0.9 2.8 -0.9
v 0.9 2.8 -1
v 1 2 -0.8
v 1 2 -0.9
v 1 2.8 -0.8
v 1 2.8 -0.9
v 0.7 2 -0.8
v 0.7 2 -0.9
v 0.7 2.8 -0.8
v 0.7 2.8 -0.9
v 0.8 2 -0.7
v 0.8 2 -0.8
v 0.8 2 -0.9
v 0.8 2 -1
v 0.8 2.8 -0.7
v 0.8 2.8 -0.8
v 0.8 2.8 -0.9
v 0.8 2.8 -1
v 1.1 2 -0.4
v 1.1 2 -0.5
v 1.1 2 -1.2
v 1.1 2 -1.3
v 1.1 2.8 -0.4
v 1.1 2.8 -0.5
v 1.1 2.8 -1.2
v 1.1 2.8 -1.3
v 1.2 2 -0.5
v 1.2 2 -0.6
v 1.2 2 -1.1
v 1.2 2 -1.2
v 1.2 2.8 -0.5
v 1.2 2.8 -0.6
v 1.2 2.8 -1.1
v 1.2 2.8 -1.2
v 1.3 2 -0.6
v 1.3 2 -1.1
v 1.3 2.8 -0.6
v 1.3 2.8 -1.1
v 0.6 2 -0.4
v 0.6 2.8 -0.4
v 1.1 2 -0.4
v 1.1 2.8 -0.4
v 0.5 2 -0.5
v 0.5 2.8 -0.5
v 0.6 2 -0.5
v 0.6 2.8 -0.5
v 1.1 2 -0.5
v 1.1 2.8 -0.5
v 1.2 2 -0.5
v 1.2 2.8 -0.5
v 0.4 2 -0.6
v 0.4 2.8 -0.6
v 0.5 2 -0.6
v 0.5 2.8 -0.6
v 1.2 2 -0.6
v 1.2 2.8 -0.6
v 1.3 2 -0.6
v 1.3 2.8 -0.6
v 0.7 2 -0.9
v 0.7 2.8 -0.9
v 0.8 2 -0.9
v 0.8 2.8 -0.9
v 0.9 2 -0.9
v 0.9 2.8 -0.9
v 1 2 -0.9
v 1 2.8 -0.9
v 0.8 2 -1
v 0.8 2.8 -1
v 0.9 2 -1
v 0.9 2.8 -1
v 0.8 2 -0.7
v 0.8 2.8 -0.7
v 0.9 2 -0.7
v 0.9 2.8 -0.7
v 0.7 2 -0.8
v 0.7 2.8 -0.8
v 0.8 2 -0.8
v 0.8 2.8 -0.8
v 0.9 2 -0.8
v 0.9 2.8 -0.8
v 1 2 -0.8
v 1 2.8 -0.8
v 0.4 2 -1.1
v 0.4 2.8 -1.1
v 0.5 2 -1.1
v 0.5 2.8 -1.1
v 1.2 2 -1.1
v 1.2 2.8 -1.1
v 1.3 2 -1.1
v 1.3 2.8 -1.1
v 0.5 2 -1.2
v 0.5 2.8 -1.2
v 0.6 2 -1.2
v 0.6 2.8 -1.2
v 1.1 2 -1.2
v 1.1 2.8 -1.2
v 1.2 2 -1.2
v 1.2 2.8 -1.2
v 0.6 2 -1.3
v 0.6 2.8 -1.3
v 1.1 2 -1.3
v 1.1 2.8 -1.3
v 0.6 2 -0.4
v 1.1 2 -0.4
v 0.5 2 -0.5
v 0.6 2 -0.5
v 1.1 2 -0.5
v 1.2 2 -0.5
v 0.4 2 -0.6
v 0.5 2 -0.6
v 0.7 2 -0.6
v 1 2 -0.6
v 1.2 2 -0.6
v 1.3 2 -0.6
v 0.6 2 -0.7
v 0.7 2 -0.7
v 0.8 2 -0.7
v 0.9 2 -0.7
v 1 2 -0.7
v 1.1 2 -0.7
v 0.7 2 -0.8
v 0.8 2 -0.8
v 0.9 2 -0.8
v 1 2 -0.8
v 0.7 2 -0.9
v 0.8 2 -0.9
v 0.9 2 -0.9
v 1 2 -0.9
v 0.6 2 -1
v 0.7 2 -1
v 0.8 2 -1
v 0.9 2 -1
v 1 2 -1
v 1.1 2 -1
v 0.4 2 -1.1
v 0.5 2 -1.1
v 0.7 2 -1.1
v 1 2 -1.1
v 1.2 2 -1.1
v 1.3 2 -1.1
v 0.5 2 -1.2
v 0.6 2 -1.2
v 1.1 2 -1.2
v 1.2 2 -1.2
v 0.6 2 -1.3
v 1.1 2 -1.3
v 0.6 2.8 -0.4
v 1.1 2.8 -0.4
v 0.5 2.8 -0.5
v 0.6 2.8 -0.5
v 1.1 2.8 -0.5
v 1.2 2.8 -0.5
v 0.4 2.8 -0.6
v 0.5 2.8 -0.6
v 0.7 2.8 -0.6
v 1 2.8 -0.6
v 1.2 2.8 -0.6
v 1.3 2.8 -0.6
v 0.6 2.8 -0.7
v 0.7 2.8 -0.7
v 0.8 2.8 -0.7
v 0.9 2.8 -0.7
v 1 2.8 -0.7
v 1.1 2.8 -0.7
v 0.7 2.8 -0.8
v 0.8 2.8 -0.8
v 0.9 2.8 -0.8
v 1 2.8 -0.8
v 0.7 2.8 -0.9
v 0.8 2.8 -0.9
v 0.9 2.8 -0.9
v 1 2.8 -0.9
v 0.6 2.8 -1
v 0.7 2.8 -1
v 0.8 2.8 -1
v 0.9 2.8 -1
v 1 2.8 -1
v 1.1 2.8 -1
v 0.4 2.8 -1.1
v 0.5 2.8 -1.1
v 0.7 2.8 -1.1
v 1 2.8 -1.1
v 1.2 2.8 -1.1
v 1.3 2.8 -1.1
v 0.5 2.8 -1.2
v 0.6 2.8 -1.2
v 1.1 2.8 -1.2
v 1.2 2.8 -1.2
v 0.6 2.8 -1.3
v 1.1 2.8 -1.3

# faces
f 3/2/1 2/2/1 1/2/1
f 4/2/1 2/2/1 3/2/1
f 9/2/1 6/2/1 5/2/1
f 10/2/1 6/2/1 9/2/1
f 11/2/1 8/2/1 7/2/1
f 12/2/1 8/2/1 11/2/1
f 17/2/1 14/2/1 13/2/1
f 18/2/1 14/2/1 17/2/1
f 19/2/1 16/2/1 15/2/1
f 20/2/1 16/2/1 19/2/1
f 25/1/1 22/1/1 21/1/1
f 26/1/1 22/1/1 25/1/1
f 27/1/1 24/1/1 23/1/1
f 28/1/1 24/1/1 27/1/1
f 31/1/1 30/1/1 29/1/1
f 32/1/1 30/1/1 31/1/1
f 33/1/2 34/1/2 35/1/2
f 35/1/2 34/1/2 36/1/2
f 37/1/2 38/1/2 41/1/2
f 41/1/2 38/1/2 42/1/2
f 39/1/2 40/1/2 43/1/2
f 43/1/2 40/1/2 44/1/2
f 45/2/2 46/2/2 49/2/2
f 49/2/2 46/2/2 50/2/2
f 47/2/2 48/2/2 51/2/2
f 51/2/2 48/2/2 52/2/2
f 53/2/2 54/2/2 57/2/2
f 57/2/2 54/2/2 58/2/2
f 55/2/2 56/2/2 59/2/2
f 59/2/2 56/2/2 60/2/2
f 61/2/2 62/2/2 63/2/2
f 63/2/2 62/2/2 64/2/2
f 67/2/3 66/2/3 65/2/3
f 68/2/3 66/2/3 67/2/3
f 71/2/3 70/2/3 69/2/3
f 72/2/3 70/2/3 71/2/3
f 75/2/3 74/2/3 73/2/3
f 76/2/3 74/2/3 75/2/3
f 79/2/3 78/2/3 77/2/3
f 80/2/3 78/2/3 79/2/3
f 83/2/3 82/2/3 81/2/3
f 84/2/3 82/2/3 83/2/3
f 87/1/3 86/1/3 85/1/3
f 88/1/3 86/1/3 87/1/3
f 91/1/3 90/1/3 89/1/3
f 92/1/3 90/1/3 91/1/3
f 95/1/3 94/1/3 93/1/3
f 96/1/3 94/1/3 95/1/3
f 97/1/4 98/1/4 99/1/4
f 99/1/4 98/1/4 100/1/4
f 101/1/4 102/1/4 103/1/4
f 103/1/4 102/1/4 104/1/4
f 105/1/4 106/1/4 107/1/4
f 107/1/4 106/1/4 108/1/4
f 109/2/4 110/2/4 111/2/4
f 111/2/4 110/2/4 112/2/4
f 113/2/4 114/2/4 115/2/4
f 115/2/4 114/2/4 116/2/4
f 117/2/4 118/2/4 119/2/4
f 119/2/4 118/2/4 120/2/4
f 121/2/4 122/2/4 123/2/4
f 123/2/4 122/2/4 124/2/4
f 125/2/4 126/2/4 127/2/4
f 127/2/4 126/2/4 128/2/4
f 132/2/5 130/2/5 129/2/5
f 133/2/5 130/2/5 132/2/5
f 136/2/5 132/2/5 131/2/5
f 136/2/5 134/2/5 133/2/5
f 136/2/5 133/2/5 132/2/5
f 137/2/5 134/2/5 136/2/5
f 138/2/5 134/2/5 137/2/5
f 139/2/5 134/2/5 138/2/5
f 141/2/5 136/2/5 135/2/5
f 141/2/5 137/2/5 136/2/5
f 142/1/5 138/1/5 137/1/5
f 142/2/5 137/2/5 141/2/5
f 143/1/5 138/1/5 142/1/5
f 144/1/5 138/1/5 143/1/5
f 145/2/5 140/2/5 139/2/5
f 145/1/5 138/1/5 144/1/5
f 145/2/5 139/2/5 138/2/5
f 146/2/5 140/2/5 145/2/5
f 147/1/5 143/1/5 142/1/5
f 147/1/5 142/1/5 141/1/5
f 148/1/5 143/1/5 147/1/5
f 149/1/5 146/1/5 145/1/5
f 149/1/5 145/1/5 144/1/5
f 150/1/5 146/1/5 149/1/5
f 151/1/5 147/1/5 141/1/5
f 154/1/5 146/1/5 150/1/5
f 155/1/5 152/1/5 151/1/5
f 155/2/5 141/2/5 135/2/5
f 155/1/5 151/1/5 141/1/5
f 156/1/5 152/1/5 155/1/5
f 157/1/5 152/1/5 156/1/5
f 158/1/5 154/1/5 153/1/5
f 159/1/5 146/1/5 154/1/5
f 159/1/5 154/1/5 158/1/5
f 160/2/5 140/2/5 146/2/5
f 160/1/5 146/1/5 159/1/5
f 161/2/5 155/2/5 135/2/5
f 161/2/5 156/2/5 155/2/5
f 162/2/5 156/2/5 161/2/5
f 163/1/5 159/1/5 158/1/5
f 163/2/5 156/2/5 162/2/5
f 163/1/5 157/1/5 156/1/5
f 163/1/5 158/1/5 157/1/5
f 164/2/5 160/2/5 159/2/5
f 164/1/5 159/1/5 163/1/5
f 165/2/5 140/2/5 160/2/5
f 165/2/5 160/2/5 164/2/5
f 166/2/5 140/2/5 165/2/5
f 167/2/5 164/2/5 163/2/5
f 167/2/5 165/2/5 164/2/5
f 167/2/5 163/2/5 162/2/5
f 168/2/5 165/2/5 167/2/5
f 169/2/5 165/2/5 168/2/5
f 170/2/5 165/2/5 169/2/5
f 171/2/5 169/2/5 168/2/5
f 172/2/5 169/2/5 171/2/5
f 173/2/6 174/2/6 176/2/6
f 176/2/6 174/2/6 177/2/6
f 175/2/6 176/2/6 180/2/6
f 177/2/6 178/2/6 180/2/6
f 176/2/6 177/2/6 180/2/6
f 180/2/6 178/2/6 181/2/6
f 181/2/6 178/2/6 182/2/6
f 182/2/6 178/2/6 183/2/6
f 179/2/6 180/2/6 185/2/6
f 180/2/6 181/2/6 185/2/6
f 181/1/6 182/1/6 186/1/6
f 185/2/6 181/2/6 186/2/6
f 186/1/6 182/1/6 187/1/6
f 187/1/6 182/1/6 188/1/6
f 183/2/6 184/2/6 189/2/6
f 188/1/6 182/1/6 189/1/6
f 182/2/6 183/2/6 189/2/6
f 189/2/6 184/2/6 190/2/6
f 186/1/6 187/1/6 191/1/6
f 185/1/6 186/1/6 191/1/6
f 191/1/6 187/1/6 192/1/6
f 189/1/6 190/1/6 193/1/6
f 188/1/6 189/1/6 193/1/6
f 193/1/6 190/1/6 194/1/6
f 185/1/6 191/1/6 195/1/6
f 194/1/6 190/1/6 198/1/6
f 195/1/6 196/1/6 199/1/6
f 179/2/6 185/2/6 199/2/6
f 185/1/6 195/1/6 199/1/6
f 199/1/6 196/1/6 200/1/6
f 200/1/6 196/1/6 201/1/6
f 197/1/6 198/1/6 202/1/6
f 198/1/6 190/1/6 203/1/6
f 202/1/6 198/1/6 203/1/6
f 190/2/6 184/2/6 204/2/6
f 203/1/6 190/1/6 204/1/6
f 179/2/6 199/2/6 205/2/6
f 199/2/6 200/2/6 205/2/6
f 205/2/6 200/2/6 206/2/6
f 202/1/6 203/1/6 207/1/6
f 206/2/6 200/2/6 207/2/6
f 200/1/6 201/1/6 207/1/6
f 201/1/6 202/1/6 207/1/6
f 203/2/6 204/2/6 208/2/6
f 207/1/6 203/1/6 208/1/6
f 204/2/6 184/2/6 209/2/6
f 208/2/6 204/2/6 209/2/6
f 209/2/6 184/2/6 210/2/6
f 207/2/6 208/2/6 211/2/6
f 208/2/6 209/2/6 211/2/6
f 206/2/6 207/2/6 211/2/6
f 211/2/6 209/2/6 212/2/6
f 212/2/6 209/2/6 213/2/6
f 213/2/6 209/2/6 214/2/6
f 212/2/6 213/2/6 215/2/6
f 215/2/6 213/2/6 216/2/6
