# MagicaVoxel @ Ephtracy

# group
o 

# material
mtllib runway.mtl
usemtl palette

# normals
vn -1 0 0
vn 1 0 0
vn 0 0 1
vn 0 0 -1
vn 0 -1 0
vn 0 1 0

# texcoords
vt 0.470703 0.5
vt 0.541016 0.5
vt 0.693359 0.5

# verts
v 0 0.4 0
v 0 0.4 -0.8
v 0 0.5 -0.1
v 0 0.5 -0.2
v 0 0.5 -0.4
v 0 0.5 -0.5
v 0 0.5 -0.7
v 0 0.5 -0.8
v 0 0.6 -0.1
v 0 0.6 -0.2
v 0 0.6 -0.3
v 0 0.6 -0.4
v 0 0.6 -0.5
v 0 0.6 -0.6
v 0 0.6 -0.7
v 0 0.6 -0.8
v 0 0.7 0
v 0 0.7 -0.2
v 0 0.7 -0.3
v 0 0.7 -0.5
v 0 0.7 -0.6
v 0 0.7 -0.8
v 0.7 0.5 0
v 0.7 0.5 -0.1
v 0.7 0.5 -0.2
v 0.7 0.5 -0.3
v 0.7 0.5 -0.4
v 0.7 0.5 -0.5
v 0.7 0.5 -0.6
v 0.7 0.5 -0.7
v 0.7 0.5 -0.8
v 0.7 0.6 -0.1
v 0.7 0.6 -0.2
v 0.7 0.6 -0.3
v 0.7 0.6 -0.4
v 0.7 0.6 -0.5
v 0.7 0.6 -0.6
v 0.7 0.6 -0.7
v 0.7 0.6 -0.8
v 0.7 0.7 0
v 0.7 0.7 -0.2
v 0.7 0.7 -0.3
v 0.7 0.7 -0.5
v 0.7 0.7 -0.6
v 0.7 0.7 -0.8
v 0.1 0.5 0
v 0.1 0.5 -0.1
v 0.1 0.5 -0.2
v 0.1 0.5 -0.3
v 0.1 0.5 -0.4
v 0.1 0.5 -0.5
v 0.1 0.5 -0.7
v 0.1 0.5 -0.8
v 0.1 0.6 -0.1
v 0.1 0.6 -0.2
v 0.1 0.6 -0.3
v 0.1 0.6 -0.4
v 0.1 0.6 -0.5
v 0.1 0.6 -0.6
v 0.1 0.6 -0.7
v 0.1 0.6 -0.8
v 0.1 0.7 0
v 0.1 0.7 -0.2
v 0.1 0.7 -0.3
v 0.1 0.7 -0.5
v 0.1 0.7 -0.6
v 0.1 0.7 -0.8
v 0.8 0.4 0
v 0.8 0.4 -0.8
v 0.8 0.5 -0.1
v 0.8 0.5 -0.2
v 0.8 0.5 -0.3
v 0.8 0.5 -0.4
v 0.8 0.5 -0.7
v 0.8 0.5 -0.8
v 0.8 0.6 -0.1
v 0.8 0.6 -0.2
v 0.8 0.6 -0.3
v 0.8 0.6 -0.4
v 0.8 0.6 -0.5
v 0.8 0.6 -0.6
v 0.8 0.6 -0.7
v 0.8 0.6 -0.8
v 0.8 0.7 0
v 0.8 0.7 -0.2
v 0.8 0.7 -0.3
v 0.8 0.7 -0.5
v 0.8 0.7 -0.6
v 0.8 0.7 -0.8
v 0 0.4 0
v 0 0.7 0
v 0.1 0.4 0
v 0.1 0.5 0
v 0.1 0.7 0
v 0.2 0.4 0
v 0.2 0.5 0
v 0.6 0.4 0
v 0.6 0.5 0
v 0.7 0.4 0
v 0.7 0.5 0
v 0.7 0.7 0
v 0.8 0.4 0
v 0.8 0.7 0
v 0 0.4 -0.8
v 0 0.5 -0.8
v 0 0.6 -0.8
v 0 0.7 -0.8
v 0.1 0.4 -0.8
v 0.1 0.5 -0.8
v 0.1 0.6 -0.8
v 0.1 0.7 -0.8
v 0.2 0.4 -0.8
v 0.2 0.5 -0.8
v 0.3 0.4 -0.8
v 0.3 0.5 -0.8
v 0.7 0.4 -0.8
v 0.7 0.5 -0.8
v 0.7 0.6 -0.8
v 0.7 0.7 -0.8
v 0.8 0.4 -0.8
v 0.8 0.5 -0.8
v 0.8 0.6 -0.8
v 0.8 0.7 -0.8
v 0 0.4 0
v 0.1 0.4 0
v 0.2 0.4 0
v 0.6 0.4 0
v 0.7 0.4 0
v 0.8 0.4 0
v 0.1 0.4 -0.1
v 0.2 0.4 -0.1
v 0.6 0.4 -0.1
v 0.7 0.4 -0.1
v 0.4 0.4 -0.2
v 0.5 0.4 -0.2
v 0.1 0.4 -0.3
v 0.2 0.4 -0.3
v 0.4 0.4 -0.3
v 0.5 0.4 -0.3
v 0.1 0.4 -0.4
v 0.2 0.4 -0.4
v 0.6 0.4 -0.5
v 0.7 0.4 -0.5
v 0.6 0.4 -0.6
v 0.7 0.4 -0.6
v 0.2 0.4 -0.7
v 0.3 0.4 -0.7
v 0 0.4 -0.8
v 0.1 0.4 -0.8
v 0.2 0.4 -0.8
v 0.3 0.4 -0.8
v 0.7 0.4 -0.8
v 0.8 0.4 -0.8
v 0.1 0.5 0
v 0.2 0.5 0
v 0.6 0.5 0
v 0.7 0.5 0
v 0.1 0.5 -0.1
v 0.2 0.5 -0.1
v 0.6 0.5 -0.1
v 0.7 0.5 -0.1
v 0.1 0.5 -0.2
v 0.4 0.5 -0.2
v 0.5 0.5 -0.2
v 0.7 0.5 -0.2
v 0.1 0.5 -0.3
v 0.2 0.5 -0.3
v 0.4 0.5 -0.3
v 0.5 0.5 -0.3
v 0.7 0.5 -0.3
v 0.1 0.5 -0.4
v 0.2 0.5 -0.4
v 0.7 0.5 -0.4
v 0.1 0.5 -0.5
v 0.6 0.5 -0.5
v 0.7 0.5 -0.5
v 0.6 0.5 -0.6
v 0.7 0.5 -0.6
v 0.1 0.5 -0.7
v 0.2 0.5 -0.7
v 0.3 0.5 -0.7
v 0.7 0.5 -0.7
v 0.1 0.5 -0.8
v 0.2 0.5 -0.8
v 0.3 0.5 -0.8
v 0.7 0.5 -0.8
v 0 0.7 0
v 0.1 0.7 0
v 0.7 0.7 0
v 0.8 0.7 0
v 0 0.7 -0.2
v 0.1 0.7 -0.2
v 0.7 0.7 -0.2
v 0.8 0.7 -0.2
v 0 0.7 -0.3
v 0.1 0.7 -0.3
v 0.7 0.7 -0.3
v 0.8 0.7 -0.3
v 0 0.7 -0.5
v 0.1 0.7 -0.5
v 0.7 0.7 -0.5
v 0.8 0.7 -0.5
v 0 0.7 -0.6
v 0.1 0.7 -0.6
v 0.7 0.7 -0.6
v 0.8 0.7 -0.6
v 0 0.7 -0.8
v 0.1 0.7 -0.8
v 0.7 0.7 -0.8
v 0.8 0.7 -0.8

# faces
f 3/1/1 2/1/1 1/1/1
f 4/1/1 2/1/1 3/1/1
f 5/1/1 2/1/1 4/1/1
f 6/1/1 2/1/1 5/1/1
f 7/1/1 2/1/1 6/1/1
f 8/1/1 2/1/1 7/1/1
f 9/1/1 3/1/1 1/1/1
f 9/3/1 4/3/1 3/3/1
f 10/1/1 5/1/1 4/1/1
f 10/3/1 4/3/1 9/3/1
f 11/1/1 5/1/1 10/1/1
f 12/3/1 6/3/1 5/3/1
f 12/1/1 5/1/1 11/1/1
f 13/1/1 7/1/1 6/1/1
f 13/3/1 6/3/1 12/3/1
f 14/1/1 7/1/1 13/1/1
f 15/3/1 8/3/1 7/3/1
f 15/1/1 7/1/1 14/1/1
f 16/3/1 8/3/1 15/3/1
f 17/1/1 9/1/1 1/1/1
f 17/1/1 10/1/1 9/1/1
f 18/3/1 11/3/1 10/3/1
f 18/1/1 10/1/1 17/1/1
f 19/1/1 12/1/1 11/1/1
f 19/3/1 11/3/1 18/3/1
f 19/1/1 13/1/1 12/1/1
f 20/3/1 14/3/1 13/3/1
f 20/1/1 13/1/1 19/1/1
f 21/1/1 16/1/1 15/1/1
f 21/3/1 14/3/1 20/3/1
f 21/1/1 15/1/1 14/1/1
f 22/1/1 16/1/1 21/1/1
f 32/1/1 24/1/1 23/1/1
f 32/3/1 25/3/1 24/3/1
f 33/1/1 26/1/1 25/1/1
f 33/3/1 25/3/1 32/3/1
f 34/3/1 27/3/1 26/3/1
f 34/1/1 26/1/1 33/1/1
f 35/1/1 30/1/1 29/1/1
f 35/3/1 27/3/1 34/3/1
f 35/1/1 28/1/1 27/1/1
f 35/1/1 29/1/1 28/1/1
f 36/1/1 30/1/1 35/1/1
f 37/1/1 30/1/1 36/1/1
f 38/3/1 31/3/1 30/3/1
f 38/1/1 30/1/1 37/1/1
f 39/3/1 31/3/1 38/3/1
f 40/1/1 32/1/1 23/1/1
f 40/1/1 33/1/1 32/1/1
f 41/3/1 34/3/1 33/3/1
f 41/1/1 33/1/1 40/1/1
f 42/1/1 35/1/1 34/1/1
f 42/3/1 34/3/1 41/3/1
f 42/1/1 36/1/1 35/1/1
f 43/3/1 37/3/1 36/3/1
f 43/1/1 36/1/1 42/1/1
f 44/1/1 39/1/1 38/1/1
f 44/3/1 37/3/1 43/3/1
f 44/1/1 38/1/1 37/1/1
f 45/1/1 39/1/1 44/1/1
f 46/1/2 47/1/2 54/1/2
f 47/3/2 48/3/2 54/3/2
f 48/1/2 49/1/2 55/1/2
f 54/3/2 48/3/2 55/3/2
f 49/1/2 50/1/2 55/1/2
f 55/1/2 50/1/2 56/1/2
f 50/3/2 51/3/2 57/3/2
f 56/1/2 50/1/2 57/1/2
f 51/1/2 52/1/2 58/1/2
f 57/3/2 51/3/2 58/3/2
f 58/1/2 52/1/2 59/1/2
f 52/3/2 53/3/2 60/3/2
f 59/1/2 52/1/2 60/1/2
f 60/3/2 53/3/2 61/3/2
f 46/1/2 54/1/2 62/1/2
f 54/1/2 55/1/2 62/1/2
f 55/3/2 56/3/2 63/3/2
f 62/1/2 55/1/2 63/1/2
f 56/1/2 57/1/2 64/1/2
f 63/3/2 56/3/2 64/3/2
f 57/1/2 58/1/2 64/1/2
f 58/3/2 59/3/2 65/3/2
f 64/1/2 58/1/2 65/1/2
f 60/1/2 61/1/2 66/1/2
f 65/3/2 59/3/2 66/3/2
f 59/1/2 60/1/2 66/1/2
f 66/1/2 61/1/2 67/1/2
f 68/1/2 69/1/2 70/1/2
f 70/1/2 69/1/2 71/1/2
f 71/1/2 69/1/2 72/1/2
f 72/1/2 69/1/2 73/1/2
f 73/1/2 69/1/2 74/1/2
f 74/1/2 69/1/2 75/1/2
f 68/1/2 70/1/2 76/1/2
f 70/3/2 71/3/2 76/3/2
f 71/1/2 72/1/2 77/1/2
f 76/3/2 71/3/2 77/3/2
f 72/3/2 73/3/2 78/3/2
f 77/1/2 72/1/2 78/1/2
f 73/1/2 74/1/2 79/1/2
f 78/3/2 73/3/2 79/3/2
f 79/1/2 74/1/2 80/1/2
f 80/1/2 74/1/2 81/1/2
f 74/3/2 75/3/2 82/3/2
f 81/1/2 74/1/2 82/1/2
f 82/3/2 75/3/2 83/3/2
f 68/1/2 76/1/2 84/1/2
f 76/1/2 77/1/2 84/1/2
f 77/3/2 78/3/2 85/3/2
f 84/1/2 77/1/2 85/1/2
f 78/1/2 79/1/2 86/1/2
f 85/3/2 78/3/2 86/3/2
f 79/1/2 80/1/2 86/1/2
f 80/3/2 81/3/2 87/3/2
f 86/1/2 80/1/2 87/1/2
f 82/1/2 83/1/2 88/1/2
f 87/3/2 81/3/2 88/3/2
f 81/1/2 82/1/2 88/1/2
f 88/1/2 83/1/2 89/1/2
f 92/1/3 91/1/3 90/1/3
f 93/1/3 91/1/3 92/1/3
f 94/1/3 91/1/3 93/1/3
f 95/3/3 93/3/3 92/3/3
f 96/3/3 93/3/3 95/3/3
f 97/2/3 96/2/3 95/2/3
f 98/2/3 96/2/3 97/2/3
f 99/3/3 98/3/3 97/3/3
f 100/3/3 98/3/3 99/3/3
f 102/1/3 100/1/3 99/1/3
f 102/1/3 101/1/3 100/1/3
f 103/1/3 101/1/3 102/1/3
f 104/1/4 105/1/4 108/1/4
f 105/3/4 106/3/4 109/3/4
f 108/1/4 105/1/4 109/1/4
f 106/1/4 107/1/4 110/1/4
f 109/3/4 106/3/4 110/3/4
f 110/1/4 107/1/4 111/1/4
f 108/2/4 109/2/4 112/2/4
f 112/2/4 109/2/4 113/2/4
f 112/3/4 113/3/4 114/3/4
f 114/3/4 113/3/4 115/3/4
f 114/2/4 115/2/4 116/2/4
f 116/2/4 115/2/4 117/2/4
f 116/1/4 117/1/4 120/1/4
f 117/3/4 118/3/4 121/3/4
f 120/1/4 117/1/4 121/1/4
f 118/1/4 119/1/4 122/1/4
f 121/3/4 118/3/4 122/3/4
f 122/1/4 119/1/4 123/1/4
f 130/1/5 125/1/5 124/1/5
f 130/3/5 126/3/5 125/3/5
f 131/2/5 127/2/5 126/2/5
f 131/3/5 126/3/5 130/3/5
f 132/3/5 128/3/5 127/3/5
f 132/2/5 127/2/5 131/2/5
f 133/1/5 129/1/5 128/1/5
f 133/3/5 128/3/5 132/3/5
f 134/2/5 132/2/5 131/2/5
f 134/2/5 131/2/5 130/2/5
f 134/2/5 133/2/5 132/2/5
f 135/2/5 133/2/5 134/2/5
f 136/1/5 130/1/5 124/1/5
f 136/2/5 134/2/5 130/2/5
f 137/2/5 134/2/5 136/2/5
f 138/3/5 135/3/5 134/3/5
f 138/2/5 134/2/5 137/2/5
f 139/2/5 133/2/5 135/2/5
f 139/3/5 135/3/5 138/3/5
f 140/3/5 137/3/5 136/3/5
f 140/1/5 136/1/5 124/1/5
f 141/2/5 138/2/5 137/2/5
f 141/3/5 137/3/5 140/3/5
f 141/2/5 139/2/5 138/2/5
f 142/2/5 133/2/5 139/2/5
f 142/2/5 139/2/5 141/2/5
f 142/2/5 141/2/5 140/2/5
f 143/1/5 129/1/5 133/1/5
f 143/2/5 133/2/5 142/2/5
f 144/2/5 142/2/5 140/2/5
f 144/3/5 143/3/5 142/3/5
f 145/1/5 129/1/5 143/1/5
f 145/3/5 143/3/5 144/3/5
f 146/2/5 144/2/5 140/2/5
f 146/2/5 145/2/5 144/2/5
f 147/2/5 145/2/5 146/2/5
f 148/1/5 140/1/5 124/1/5
f 149/2/5 146/2/5 140/2/5
f 149/1/5 140/1/5 148/1/5
f 150/3/5 147/3/5 146/3/5
f 150/2/5 146/2/5 149/2/5
f 151/2/5 145/2/5 147/2/5
f 151/3/5 147/3/5 150/3/5
f 152/1/5 129/1/5 145/1/5
f 152/2/5 145/2/5 151/2/5
f 153/1/5 129/1/5 152/1/5
f 154/3/6 155/3/6 158/3/6
f 155/2/6 156/2/6 159/2/6
f 158/3/6 155/3/6 159/3/6
f 156/3/6 157/3/6 160/3/6
f 159/2/6 156/2/6 160/2/6
f 160/3/6 157/3/6 161/3/6
f 158/2/6 159/2/6 162/2/6
f 159/2/6 160/2/6 162/2/6
f 160/2/6 161/2/6 162/2/6
f 162/2/6 161/2/6 163/2/6
f 163/2/6 161/2/6 164/2/6
f 164/2/6 161/2/6 165/2/6
f 162/2/6 163/2/6 166/2/6
f 166/2/6 163/2/6 167/2/6
f 163/3/6 164/3/6 168/3/6
f 167/2/6 163/2/6 168/2/6
f 164/2/6 165/2/6 169/2/6
f 168/3/6 164/3/6 169/3/6
f 169/2/6 165/2/6 170/2/6
f 166/3/6 167/3/6 171/3/6
f 167/2/6 168/2/6 172/2/6
f 171/3/6 167/3/6 172/3/6
f 168/2/6 169/2/6 172/2/6
f 169/2/6 170/2/6 172/2/6
f 172/2/6 170/2/6 173/2/6
f 171/2/6 172/2/6 174/2/6
f 172/2/6 173/2/6 174/2/6
f 174/2/6 173/2/6 175/2/6
f 175/2/6 173/2/6 176/2/6
f 174/2/6 175/2/6 177/2/6
f 175/3/6 176/3/6 177/3/6
f 177/3/6 176/3/6 178/3/6
f 174/2/6 177/2/6 179/2/6
f 177/2/6 178/2/6 179/2/6
f 179/2/6 178/2/6 180/2/6
f 180/2/6 178/2/6 181/2/6
f 181/2/6 178/2/6 182/2/6
f 179/2/6 180/2/6 183/2/6
f 180/3/6 181/3/6 184/3/6
f 183/2/6 180/2/6 184/2/6
f 181/2/6 182/2/6 185/2/6
f 184/3/6 181/3/6 185/3/6
f 185/2/6 182/2/6 186/2/6
f 187/1/6 188/1/6 191/1/6
f 191/1/6 188/1/6 192/1/6
f 189/1/6 190/1/6 193/1/6
f 193/1/6 190/1/6 194/1/6
f 191/3/6 192/3/6 195/3/6
f 195/3/6 192/3/6 196/3/6
f 193/3/6 194/3/6 197/3/6
f 197/3/6 194/3/6 198/3/6
f 195/1/6 196/1/6 199/1/6
f 199/1/6 196/1/6 200/1/6
f 197/1/6 198/1/6 201/1/6
f 201/1/6 198/1/6 202/1/6
f 199/3/6 200/3/6 203/3/6
f 203/3/6 200/3/6 204/3/6
f 201/3/6 202/3/6 205/3/6
f 205/3/6 202/3/6 206/3/6
f 203/1/6 204/1/6 207/1/6
f 207/1/6 204/1/6 208/1/6
f 205/1/6 206/1/6 209/1/6
f 209/1/6 206/1/6 210/1/6
